# xmcd
#
# Track frame offsets:
#	150
#	5966
#	29585
#	46772
#	66260
#	76964
#	96396
#	109430
#	123580
#	137795
#	166768
#	171066
#	192421
#
# Disc length: 2825 seconds
#
# Revision: 1
# Processed by: cddbd v1.5.2PL0 Copyright (c) Steve Scherf et al.
# Submitted via: audiograbber 1.83.01
#
DISCID=b80b070d
DTITLE=Helene og Ivar Bøksle - Sanger fra vår ø
DYEAR=2016
DGENRE=Sørlandsviser
TTITLE0=Helene og Ivar Bøksle - Sangen fra vår ø - intro
TTITLE1=Helene og Ivar Bøksle - Fregatten "Elendigheda"
TTITLE2=Helene og Ivar Bøksle - På trammen
TTITLE3=Helene og Ivar Bøksle - Yachten
TTITLE4=Helene og Ivar Bøksle - Stockholmstrall
TTITLE5=Helene og Ivar Bøksle - Ved havet
TTITLE6=Helene og Ivar Bøksle - Gamleskipperens avsked med liver
TTITLE7=Helene og Ivar Bøksle - Visen til vennen Nikkolaj
TTITLE8=Helene og Ivar Bøksle - Dansen på Uvår
TTITLE9=Helene og Ivar Bøksle - Jernnatten
TTITLE10=Helene og Ivar Bøksle - Outward Bound - intro
TTITLE11=Helene og Ivar Bøksle - Outward Bound
TTITLE12=Helene og Ivar Bøksle - Sangen fra vår ø
EXTD=
EXTT0=
EXTT1=
EXTT2=
EXTT3=
EXTT4=
EXTT5=
EXTT6=
EXTT7=
EXTT8=
EXTT9=
EXTT10=
EXTT11=
EXTT12=
PLAYORDER=
